<mxfile host="app.diagrams.net" modified="2022-04-28T11:02:29.519Z" agent="5.0 (Windows NT 10.0; Win64; x64) AppleWebKit/537.36 (KHTML, like Gecko) Chrome/99.0.4844.74 Safari/537.36" etag="KKY9s6RWNtq_K6z0mRAE" version="17.4.2" type="github">
  <diagram id="70aEzQfd0cI717lkrUgI" name="Page-1">
    <mxGraphModel dx="1102" dy="606" grid="1" gridSize="10" guides="1" tooltips="1" connect="1" arrows="1" fold="1" page="1" pageScale="1" pageWidth="827" pageHeight="1169" math="0" shadow="0">
      <root>
        <mxCell id="0" />
        <mxCell id="1" parent="0" />
        <mxCell id="o7nxHNN26v442LFRNjDq-28" value="" style="rounded=0;whiteSpace=wrap;html=1;" vertex="1" parent="1">
          <mxGeometry x="110" y="80" width="650" height="475" as="geometry" />
        </mxCell>
        <mxCell id="o7nxHNN26v442LFRNjDq-13" value="" style="rounded=0;whiteSpace=wrap;html=1;fillColor=#ffe6cc;strokeColor=#d79b00;" vertex="1" parent="1">
          <mxGeometry x="190" y="408" width="540" height="112" as="geometry" />
        </mxCell>
        <mxCell id="o7nxHNN26v442LFRNjDq-12" value="" style="rounded=0;whiteSpace=wrap;html=1;fillColor=#fff2cc;strokeColor=#d6b656;" vertex="1" parent="1">
          <mxGeometry x="190" y="120" width="200" height="230" as="geometry" />
        </mxCell>
        <mxCell id="o7nxHNN26v442LFRNjDq-2" value="主线程" style="rounded=1;whiteSpace=wrap;html=1;" vertex="1" parent="1">
          <mxGeometry x="255" y="145" width="100" height="40" as="geometry" />
        </mxCell>
        <mxCell id="o7nxHNN26v442LFRNjDq-3" value="看门狗线程" style="rounded=1;whiteSpace=wrap;html=1;" vertex="1" parent="1">
          <mxGeometry x="255" y="215" width="100" height="40" as="geometry" />
        </mxCell>
        <mxCell id="o7nxHNN26v442LFRNjDq-24" style="edgeStyle=orthogonalEdgeStyle;rounded=0;orthogonalLoop=1;jettySize=auto;html=1;" edge="1" parent="1" source="o7nxHNN26v442LFRNjDq-4" target="o7nxHNN26v442LFRNjDq-13">
          <mxGeometry relative="1" as="geometry" />
        </mxCell>
        <mxCell id="o7nxHNN26v442LFRNjDq-4" value="定时器线程" style="rounded=1;whiteSpace=wrap;html=1;" vertex="1" parent="1">
          <mxGeometry x="255" y="285" width="100" height="40" as="geometry" />
        </mxCell>
        <mxCell id="o7nxHNN26v442LFRNjDq-21" style="edgeStyle=orthogonalEdgeStyle;rounded=0;orthogonalLoop=1;jettySize=auto;html=1;entryX=0.5;entryY=1;entryDx=0;entryDy=0;" edge="1" parent="1" source="o7nxHNN26v442LFRNjDq-5" target="o7nxHNN26v442LFRNjDq-11">
          <mxGeometry relative="1" as="geometry" />
        </mxCell>
        <mxCell id="o7nxHNN26v442LFRNjDq-5" value="工作目录" style="rounded=0;whiteSpace=wrap;html=1;fillColor=#d5e8d4;strokeColor=#82b366;" vertex="1" parent="1">
          <mxGeometry x="570" y="240" width="120" height="60" as="geometry" />
        </mxCell>
        <mxCell id="o7nxHNN26v442LFRNjDq-6" value="channel1进程" style="rounded=0;whiteSpace=wrap;html=1;" vertex="1" parent="1">
          <mxGeometry x="286" y="438" width="120" height="60" as="geometry" />
        </mxCell>
        <mxCell id="o7nxHNN26v442LFRNjDq-8" value="channel2进程" style="rounded=0;whiteSpace=wrap;html=1;" vertex="1" parent="1">
          <mxGeometry x="436" y="438" width="120" height="60" as="geometry" />
        </mxCell>
        <mxCell id="o7nxHNN26v442LFRNjDq-9" value="channel3进程" style="rounded=0;whiteSpace=wrap;html=1;" vertex="1" parent="1">
          <mxGeometry x="596" y="438" width="120" height="60" as="geometry" />
        </mxCell>
        <mxCell id="o7nxHNN26v442LFRNjDq-11" value="kafka" style="rounded=0;whiteSpace=wrap;html=1;fillColor=#f5f5f5;fontColor=#333333;strokeColor=#666666;" vertex="1" parent="1">
          <mxGeometry x="570" y="120" width="120" height="60" as="geometry" />
        </mxCell>
        <mxCell id="o7nxHNN26v442LFRNjDq-14" value="ffmpeg" style="text;html=1;strokeColor=#6c8ebf;fillColor=#dae8fc;align=center;verticalAlign=middle;whiteSpace=wrap;rounded=0;" vertex="1" parent="1">
          <mxGeometry x="190" y="408" width="60" height="30" as="geometry" />
        </mxCell>
        <mxCell id="o7nxHNN26v442LFRNjDq-15" value="python" style="text;html=1;strokeColor=#6c8ebf;fillColor=#dae8fc;align=center;verticalAlign=middle;whiteSpace=wrap;rounded=0;" vertex="1" parent="1">
          <mxGeometry x="190" y="120" width="60" height="30" as="geometry" />
        </mxCell>
        <mxCell id="o7nxHNN26v442LFRNjDq-16" value="" style="endArrow=classic;html=1;rounded=0;exitX=1;exitY=0.5;exitDx=0;exitDy=0;entryX=0;entryY=0.5;entryDx=0;entryDy=0;" edge="1" parent="1" source="o7nxHNN26v442LFRNjDq-3" target="o7nxHNN26v442LFRNjDq-5">
          <mxGeometry width="50" height="50" relative="1" as="geometry">
            <mxPoint x="390" y="340" as="sourcePoint" />
            <mxPoint x="440" y="290" as="targetPoint" />
          </mxGeometry>
        </mxCell>
        <mxCell id="o7nxHNN26v442LFRNjDq-17" value="" style="endArrow=classic;html=1;rounded=0;exitX=1;exitY=0.5;exitDx=0;exitDy=0;entryX=0;entryY=0.75;entryDx=0;entryDy=0;" edge="1" parent="1" source="o7nxHNN26v442LFRNjDq-4" target="o7nxHNN26v442LFRNjDq-5">
          <mxGeometry width="50" height="50" relative="1" as="geometry">
            <mxPoint x="60" y="380" as="sourcePoint" />
            <mxPoint x="110" y="330" as="targetPoint" />
          </mxGeometry>
        </mxCell>
        <mxCell id="o7nxHNN26v442LFRNjDq-22" value="监控新增图片发送到kafka" style="text;html=1;strokeColor=none;fillColor=none;align=center;verticalAlign=middle;whiteSpace=wrap;rounded=0;fontStyle=1" vertex="1" parent="1">
          <mxGeometry x="430" y="220" width="120" height="30" as="geometry" />
        </mxCell>
        <mxCell id="o7nxHNN26v442LFRNjDq-23" value="删除历史抽帧图片" style="text;html=1;strokeColor=none;fillColor=none;align=center;verticalAlign=middle;whiteSpace=wrap;rounded=0;fontStyle=1" vertex="1" parent="1">
          <mxGeometry x="450" y="310" width="60" height="30" as="geometry" />
        </mxCell>
        <mxCell id="o7nxHNN26v442LFRNjDq-25" value="监控/启动ffmpeg进程" style="text;html=1;strokeColor=none;fillColor=none;align=center;verticalAlign=middle;whiteSpace=wrap;rounded=0;fontStyle=1" vertex="1" parent="1">
          <mxGeometry x="320" y="370" width="120" height="30" as="geometry" />
        </mxCell>
        <mxCell id="o7nxHNN26v442LFRNjDq-26" value="" style="endArrow=classic;html=1;rounded=0;entryX=0.592;entryY=1.033;entryDx=0;entryDy=0;entryPerimeter=0;" edge="1" parent="1" target="o7nxHNN26v442LFRNjDq-5">
          <mxGeometry width="50" height="50" relative="1" as="geometry">
            <mxPoint x="641" y="410" as="sourcePoint" />
            <mxPoint x="440" y="270" as="targetPoint" />
          </mxGeometry>
        </mxCell>
        <mxCell id="o7nxHNN26v442LFRNjDq-27" value="抽帧保存" style="text;html=1;strokeColor=none;fillColor=none;align=center;verticalAlign=middle;whiteSpace=wrap;rounded=0;fontStyle=1" vertex="1" parent="1">
          <mxGeometry x="640" y="340" width="60" height="30" as="geometry" />
        </mxCell>
        <mxCell id="o7nxHNN26v442LFRNjDq-29" value="抽帧系统结构图" style="text;html=1;strokeColor=#36393d;fillColor=#cdeb8b;align=center;verticalAlign=middle;whiteSpace=wrap;rounded=0;fontStyle=1;fontSize=15;" vertex="1" parent="1">
          <mxGeometry x="400" y="80" width="120" height="30" as="geometry" />
        </mxCell>
      </root>
    </mxGraphModel>
  </diagram>
</mxfile>
